<svg id="Layer_1" data-name="Layer 1" xmlns="http://www.w3.org/2000/svg" viewBox="0 0 417.69 117.76"><path d="M195.43,169.54v3.2a12.37,12.37,0,0,0-6.55,2.64c-1.49,1.33-2.45,3.44-2.9,6.32a83.54,83.54,0,0,0-.68,12.16v42.4a137.37,137.37,0,0,1-1.21,19,48.47,48.47,0,0,1-4.32,14.88,26.35,26.35,0,0,1-10.26,10.88q-6.75,4-17.15,4a50.45,50.45,0,0,1-12.69-1.68,27.36,27.36,0,0,1-11.61-6.32,30.39,30.39,0,0,1-6.61-9.76,45.65,45.65,0,0,1-3.11-12.88,166.16,166.16,0,0,1-.81-17.68V186.5a37.41,37.41,0,0,0-.74-8.72,5.59,5.59,0,0,0-2.9-3.84,17.17,17.17,0,0,0-6.48-1.2v-3.2c2.24.11,5.28.21,9.11.32s7.81.16,12,.16,8.12-.05,11.94-.16,7-.21,9.52-.32v3.2a19.83,19.83,0,0,0-7,1.2,5.63,5.63,0,0,0-3.17,3.84,34.11,34.11,0,0,0-.81,8.72v60.32a84.48,84.48,0,0,0,1.62,18q1.62,7.28,5.73,11c2.75,2.45,6.5,3.68,11.28,3.68q9.45,0,14.78-5.28T180,259.54A93.7,93.7,0,0,0,182.2,238V195.78a73.36,73.36,0,0,0-.95-13.52c-.63-3.15-1.87-5.41-3.71-6.8s-4.66-2.29-8.44-2.72v-3.2c1.71.11,4,.21,6.75.32s5.4.16,7.83.16q3.24,0,6.41-.16C192.21,169.75,194,169.65,195.43,169.54Z" transform="translate(-107.41 -167.3)"/><path d="M244.16,169.54v3.2a17.7,17.7,0,0,0-6.54,1.2,5.32,5.32,0,0,0-2.91,3.84,40.77,40.77,0,0,0-.67,8.72v79.36a37,37,0,0,0,.74,8.64,5.31,5.31,0,0,0,2.9,3.84,20.41,20.41,0,0,0,6.48,1.28v3.2c-2.43-.21-5.49-.35-9.18-.4s-7.42-.08-11.2-.08q-6.48,0-12.22.08c-3.83.05-6.86.19-9.11.4v-3.2a20.41,20.41,0,0,0,6.48-1.28,5.34,5.34,0,0,0,2.9-3.84,37.56,37.56,0,0,0,.74-8.64V186.5a37.41,37.41,0,0,0-.74-8.72,5.54,5.54,0,0,0-3-3.84,17.36,17.36,0,0,0-6.41-1.2v-3.2c2.25.11,5.28.21,9.11.32s7.9.16,12.22.16q5.67,0,11.2-.16C238.67,169.75,241.73,169.65,244.16,169.54Zm46.71,0v3a30.2,30.2,0,0,0-9.24,4.48q-4.94,3.36-10.33,10.88l-25.38,35.84,7.83-13.28,32.13,59.36a24.83,24.83,0,0,0,4.05,5.92,18.44,18.44,0,0,0,5.67,3.84v3.2c-3.15-.21-6.66-.35-10.53-.4s-7.38-.08-10.53-.08q-2.84,0-6.89.08c-2.7.05-6.12.19-10.26.4v-3.2c3.69-.21,5.92-.83,6.69-1.84s.42-2.8-1-5.36l-19.57-37.6a33.76,33.76,0,0,0-3.38-5.52,9.05,9.05,0,0,0-3-2.56,10.71,10.71,0,0,0-3.91-.88V222.5a17.42,17.42,0,0,0,10.6-3.84A58.89,58.89,0,0,0,254,207.46l8-11.36q5.13-7.2,6-12.4t-1.75-8.08q-2.64-2.88-8-3v-3l9.52.32q4.51.16,10.46.16Q286,170,290.87,169.54Z" transform="translate(-107.41 -167.3)"/><path d="M340.55,169.54v3.2a17.7,17.7,0,0,0-6.54,1.2,5.32,5.32,0,0,0-2.91,3.84,40.77,40.77,0,0,0-.67,8.72v79.36a37,37,0,0,0,.74,8.64,5.29,5.29,0,0,0,3,3.84,20.8,20.8,0,0,0,6.41,1.28v3.2c-2.43-.21-5.49-.35-9.18-.4s-7.42-.08-11.2-.08q-6.48,0-12.15.08c-3.78.05-6.84.19-9.18.4v-3.2a20.41,20.41,0,0,0,6.48-1.28,5.34,5.34,0,0,0,2.9-3.84,37.56,37.56,0,0,0,.74-8.64V186.5a37.41,37.41,0,0,0-.74-8.72,5.54,5.54,0,0,0-3-3.84,17.36,17.36,0,0,0-6.41-1.2v-3.2c2.34.11,5.4.21,9.18.32s7.83.16,12.15.16q5.67,0,11.2-.16C335.06,169.75,338.12,169.65,340.55,169.54Z" transform="translate(-107.41 -167.3)"/><path d="M428.3,169.38v3.2a17.76,17.76,0,0,0-6.07,5.68,70.89,70.89,0,0,0-6.89,12.88L389.83,251h-6.35L351.89,181.7q-2.43-5.44-4.39-7.2a5.57,5.57,0,0,0-3.44-1.76v-3.36c2.43.32,4.93.54,7.49.64s5.38.16,8.44.16q5.94,0,12.83-.24t12.55-.56v3.36a26.18,26.18,0,0,0-6.07.64,5.86,5.86,0,0,0-3.78,2.32q-1.08,1.68.54,5.36l21.33,48.64-4.19,6.4L407.11,203q5-11.52,5.33-18.08c.22-4.37-.67-7.49-2.7-9.36s-4.88-2.85-8.57-3v-3.2l8.64.32q4.05.17,8.23.16c2,0,3.85-.05,5.61-.16S427,169.49,428.3,169.38ZM399.41,225.7v40.16a36.89,36.89,0,0,0,.75,8.64,5.31,5.31,0,0,0,2.9,3.84,20.41,20.41,0,0,0,6.48,1.28v3.2c-2.43-.21-5.56-.35-9.38-.4s-7.63-.08-11.41-.08q-6.35,0-12,.08c-3.78.05-6.75.19-8.91.4v-3.2a20.41,20.41,0,0,0,6.48-1.28,5.35,5.35,0,0,0,2.91-3.84,37.56,37.56,0,0,0,.74-8.64v-32.8L389.69,243Z" transform="translate(-107.41 -167.3)"/><path d="M477.44,167.3q14.31,0,25.05,6.88a45.31,45.31,0,0,1,16.67,19.76q5.94,12.88,5.94,31.28,0,17.92-6.07,31.36t-16.88,21a42.42,42.42,0,0,1-24.84,7.52q-14.31,0-25-6.88t-16.68-19.84q-5.94-13-5.94-31.2,0-17.92,6.15-31.36t16.87-21A42.12,42.12,0,0,1,477.44,167.3Zm-.54,2.88q-7.56,0-13.16,7.2t-8.64,19.84a126.42,126.42,0,0,0-3,29.28q0,17,3.45,29.52t9.31,19.36q5.88,6.8,13,6.8,7.56,0,13.16-7.2t8.64-19.92a126.06,126.06,0,0,0,3-29.2q0-17.12-3.44-29.6T489.93,177Q484.06,170.19,476.9,170.18Z" transform="translate(-107.41 -167.3)"/></svg>