<svg id="Layer_1" data-name="Layer 1" xmlns="http://www.w3.org/2000/svg" viewBox="0 0 205.17 44.16"><path d="M276,197.26a41.55,41.55,0,0,0,1.29-6.15,3.51,3.51,0,0,0-.84-3.09,7.14,7.14,0,0,0-3.81-1.32l.36-1.2,3.09.12q1.89.06,3.57.06,1.38,0,2.73-.06l2.31-.12-.36,1.2a6,6,0,0,0-5,4.05,39.92,39.92,0,0,0-1.71,5.31l-3.72,14.46q-2.16,8.28-5.88,12.72a16.07,16.07,0,0,1-5.37,4,15.9,15.9,0,0,1-6.93,1.53,19.62,19.62,0,0,1-8.7-1.62,10.4,10.4,0,0,1-4.62-4.08,11.36,11.36,0,0,1-1.23-5.25,27.06,27.06,0,0,1,1.11-7.17l5-18.84q.84-3.3.15-4.17t-3.69-1l.36-1.2q1.74.06,4.83.12t6.51.06q3,0,5.7-.06l4.8-.12-.36,1.2a11.25,11.25,0,0,0-3.18.45,3.23,3.23,0,0,0-1.77,1.44,13.59,13.59,0,0,0-1.23,3.27l-5.28,19.86a37.64,37.64,0,0,0-1.47,8.76q0,3.3,1.11,4.77a3.73,3.73,0,0,0,3.12,1.47,13.19,13.19,0,0,0,7.5-2,15.3,15.3,0,0,0,4.92-5.55,34.86,34.86,0,0,0,3.06-8Z" transform="translate(-241.14 -184.66)"/><path d="M294.75,221.62q-.84,3.3-.18,4.17t3.72,1l-.24,1.2q-1.86-.12-4.74-.15t-5.88,0q-3.42,0-6.39,0t-4.83.15l.3-1.2a13,13,0,0,0,3.09-.48,3.19,3.19,0,0,0,1.77-1.44,12.06,12.06,0,0,0,1.2-3.24l7.92-29.76q.84-3.3.15-4.17t-3.69-1l.3-1.2q1.74.06,4.77.12t6.45.06q3,0,5.79-.06l4.89-.12-.3,1.2a11.25,11.25,0,0,0-3.18.45,3.23,3.23,0,0,0-1.77,1.44,13.59,13.59,0,0,0-1.23,3.27Zm10.74-15.24a14.87,14.87,0,0,1-4.35.72q-1.17-.12-.93-1.26a1.48,1.48,0,0,1,1.29-1.2,11.08,11.08,0,0,1,4,.66Zm12.3,17.34a1.9,1.9,0,0,0,1.53-.78,6.43,6.43,0,0,0,1.05-2.1l1-3.06h1.2L321,222.4a8.73,8.73,0,0,1-8.52,6.42q-4.5,0-6.57-2.25a6.4,6.4,0,0,1-1.47-5.73l1.68-9.48a11.51,11.51,0,0,0,.27-2.52,3.26,3.26,0,0,0-.45-1.68,3,3,0,0,0-1.32-1.08l.12-.6q5.82.06,8.7,1.32a6.24,6.24,0,0,1,3.69,3.6,11.75,11.75,0,0,1,.27,5.7l-1,6a1.31,1.31,0,0,0,.3,1.17A1.34,1.34,0,0,0,317.79,223.72Zm-.42-36.36a11.23,11.23,0,0,0-2,3.84q-.75,2.34-1.44,4.89a29.62,29.62,0,0,1-1.74,4.8,10.13,10.13,0,0,1-2.79,3.66,7,7,0,0,1-4.68,1.35l.12-.6a7.07,7.07,0,0,0,4.26-1.8,10.61,10.61,0,0,0,2.46-3.72,33.25,33.25,0,0,0,1.5-4.71q.6-2.49,1.35-4.71a10.77,10.77,0,0,1,2.07-3.72,4.91,4.91,0,0,1,2.28-1.59,8.3,8.3,0,0,1,2.46-.39,7.24,7.24,0,0,1,5.07,1.83,6.29,6.29,0,0,1,2,4.89,8,8,0,0,1-1.74,4.89,5.92,5.92,0,0,1-5,2.31,5.6,5.6,0,0,1-3.51-1.23,4.44,4.44,0,0,1-1.59-3.75,7.2,7.2,0,0,1,1.65-4.47,9.62,9.62,0,0,1,4.53-3.15,2.89,2.89,0,0,0-.63-.21,4.19,4.19,0,0,0-.93-.09,4.83,4.83,0,0,0-2.16.42A4.44,4.44,0,0,0,317.37,187.36Z" transform="translate(-241.14 -184.66)"/><path d="M341.73,221.62q-.84,3.3-.18,4.17t3.72,1L345,228q-1.92-.12-5-.15t-6.24,0q-3.24,0-6.06,0t-4.56.15l.3-1.2a13,13,0,0,0,3.09-.48,3.19,3.19,0,0,0,1.77-1.44,12.06,12.06,0,0,0,1.2-3.24l7.92-29.76q.84-3.3.15-4.17t-3.69-1l.3-1.2q1.68.06,4.53.12t6.09.06q3.18,0,6.12-.06l5.16-.12-.3,1.2a11.25,11.25,0,0,0-3.18.45,3.23,3.23,0,0,0-1.77,1.44,13.59,13.59,0,0,0-1.23,3.27Z" transform="translate(-241.14 -184.66)"/><path d="M395.25,185.68a5.57,5.57,0,0,0-1.83.3,7.88,7.88,0,0,0-2,1.14,18.71,18.71,0,0,0-3.75,4.32,51.16,51.16,0,0,0-4.53,8.4,77.05,77.05,0,0,0-4,11.94l-11.28.3q-.24-2.82-.66-5.88t-1.05-6a47.38,47.38,0,0,0-1.44-5.28,15.69,15.69,0,0,0-1.77-3.75,2.68,2.68,0,0,0-2.16-1.38,2,2,0,0,0-1.77.93,7.2,7.2,0,0,0-.93,1.89l-1,3.06h-1.32l1.26-3.84q1.38-4.14,4.2-5.67a12.28,12.28,0,0,1,5.94-1.53q4.62,0,7,2.43a14.8,14.8,0,0,1,3.51,7.17,103,103,0,0,1,1.89,11.58,70.66,70.66,0,0,1,4.14-10.17,39.58,39.58,0,0,1,4.74-7.41,11.49,11.49,0,0,1,3.15-2.61,8,8,0,0,1,4-1,7,7,0,0,1,5.1,1.86,6.1,6.1,0,0,1,1.92,4.56,5.8,5.8,0,0,1-1.95,4.59,7,7,0,0,1-4.77,1.71,6,6,0,0,1-3.87-1.17,3.94,3.94,0,0,1-1.47-3.27,6.21,6.21,0,0,1,1.8-4.53,7.77,7.77,0,0,1,4.44-2.25,1.49,1.49,0,0,0-.63-.36A3,3,0,0,0,395.25,185.68Zm-18.6,35.94q-.78,3.3.45,4.17a8.35,8.35,0,0,0,4.29,1l-.3,1.2q-1.26-.06-3.33-.09l-4.44-.06-4.47,0c-2.16,0-4.23,0-6.18,0s-3.52.07-4.68.15l.3-1.2a13.72,13.72,0,0,0,3.18-.48,3.19,3.19,0,0,0,1.8-1.44,12.06,12.06,0,0,0,1.2-3.24l4.14-16.44,5.1,3.78,5.58-1.14,2-4.8Z" transform="translate(-241.14 -184.66)"/><path d="M399.93,214.42a27.15,27.15,0,0,1,1.32-8.16,32.71,32.71,0,0,1,3.78-8,32.07,32.07,0,0,1,6-6.9,28,28,0,0,1,7.95-4.86,25.31,25.31,0,0,1,9.6-1.8q8.28,0,13,3.75t4.74,10.71a26.87,26.87,0,0,1-1.32,8.13,33.35,33.35,0,0,1-3.81,8,32.36,32.36,0,0,1-6,6.9A28.59,28.59,0,0,1,427.2,227a25.08,25.08,0,0,1-9.57,1.8q-8.28,0-13-3.75T399.93,214.42ZM428,185.74a8.22,8.22,0,0,0-5.64,2.52,23.6,23.6,0,0,0-4.83,6.78,44.34,44.34,0,0,0-3.39,9.51,45.48,45.48,0,0,0-1.26,10.65,22.93,22.93,0,0,0,1.5,9.21c1,2.22,2.26,3.33,3.78,3.33a8.24,8.24,0,0,0,5.64-2.52,23.6,23.6,0,0,0,4.83-6.78,44.89,44.89,0,0,0,3.39-9.51,45.48,45.48,0,0,0,1.26-10.65,22.93,22.93,0,0,0-1.5-9.21Q430.29,185.74,428,185.74Z" transform="translate(-241.14 -184.66)"/></svg>